
<svg width="393px" height="439px" viewBox="0 0 393 439" version="1.1" xmlns="http://www.w3.org/2000/svg" xmlns:xlink="http://www.w3.org/1999/xlink">
    <defs>
        <linearGradient x1="13.5970135%" y1="31.0160654%" x2="86.7851644%" y2="68.360346%" id="linearGradient-1">
            <stop stop-color="#7F8AF9" offset="0%"></stop>
            <stop stop-color="#6370EE" offset="100%"></stop>
        </linearGradient>
        <linearGradient x1="24.1608086%" y1="12.6271456%" x2="24.9952811%" y2="86.5923319%" id="linearGradient-2">
            <stop stop-color="#1B95FE" offset="0%"></stop>
            <stop stop-color="#044B89" offset="100%"></stop>
        </linearGradient>
        <linearGradient x1="50%" y1="-14.8789708%" x2="50%" y2="114.482919%" id="linearGradient-3">
            <stop stop-color="#1D8CEB" offset="0%"></stop>
            <stop stop-color="#005399" offset="100%"></stop>
        </linearGradient>
    </defs>
    <g id="Page-1" stroke="none" stroke-width="1" fill="none" fill-rule="evenodd">
        <g id="play/ic_launcher_APP" transform="translate(-60.000000, -37.000000)">
            <path d="M171.95396,59.7436016 L341.154011,59.9626548 C359.005752,59.9857664 375.490943,69.5248744 384.406778,84.9907426 L468.605859,231.046827 C477.510081,246.49255 477.516243,265.511 468.622033,280.96249 L384.422891,427.237677 C375.499768,442.739397 358.975679,452.293883 341.089219,452.293883 L171.910781,452.293883 C154.024321,452.293883 137.500232,442.739397 128.577109,427.237677 L44.3672046,280.943793 C35.4787679,265.502333 35.4787679,246.497667 44.3672046,231.056207 L128.555556,84.7997663 C137.490219,69.277998 154.044383,59.7204152 171.95396,59.7436016 Z" id="路径" fill="url(#linearGradient-1)" transform="translate(256.500000, 256.000000) rotate(-330.000000) translate(-256.500000, -256.000000) "></path>
            <path d="M158.08953,425.843549 L85.1052962,383.706082 C69.6151676,374.762852 60.0821299,358.226379 60.1052121,340.339934 L60.3243638,171.540763 C60.3474821,153.723847 69.8498149,137.265324 85.2681572,128.336845 L158.071922,86.177486 L158.08953,425.843549 Z M355,425.843549 L355.017608,86.177486 L427.821373,128.336845 C443.239715,137.265324 452.742048,153.723847 452.765166,171.540763 L452.984318,340.339934 C453.0074,358.226379 443.474362,374.762852 427.984234,383.706082 L355,425.843549 Z" id="形状结合" fill="url(#linearGradient-2)" transform="translate(256.544765, 256.010517) rotate(-60.000000) translate(-256.544765, -256.010517) "></path>
            <path d="M158.08953,425.843549 L85.1052962,383.706082 C69.6151676,374.762852 60.0821299,358.226379 60.1052121,340.339934 L60.3243638,171.540763 C60.3474821,153.723847 69.8498149,137.265324 85.2681572,128.336845 L158.071922,86.177486 L158.08953,425.843549 Z M355,425.843549 L355.017608,86.177486 L427.821373,128.336845 C443.239715,137.265324 452.742048,153.723847 452.765166,171.540763 L452.984318,340.339934 C453.0074,358.226379 443.474362,374.762852 427.984234,383.706082 L355,425.843549 Z" id="形状结合" fill="url(#linearGradient-3)"></path>
        </g>
    </g>
</svg>